<?xml version="1.0" encoding="utf-8"?><!-- Uploaded to: SVG Repo, www.svgrepo.com, Generator: SVG Repo Mixer Tools -->
<svg version="1.1" id="Uploaded to svgrepo.com" xmlns="http://www.w3.org/2000/svg" xmlns:xlink="http://www.w3.org/1999/xlink" 
	 width="800px" height="800px" viewBox="0 0 32 32" xml:space="preserve">
<style type="text/css">
	.stone_een{fill:#0B1719;}
</style>
<path class="stone_een" d="M16,12c-2.206,0-4,1.794-4,4c0,2.206,1.794,4,4,4s4-1.794,4-4C20,13.794,18.206,12,16,12z M16,19
	c-1.657,0-3-1.343-3-3s1.343-3,3-3s3,1.343,3,3S17.657,19,16,19z M18,16c0,1.103-0.897,2-2,2s-2-0.897-2-2c0-1.103,0.897-2,2-2
	S18,14.897,18,16z M30,12h-1.634c-0.214-0.663-0.485-1.3-0.798-1.911l1.16-1.16c0.781-0.781,0.781-2.047,0-2.828l-2.828-2.828
	c-0.391-0.391-0.902-0.586-1.414-0.586s-1.024,0.195-1.414,0.586l-1.16,1.16C21.3,4.118,20.663,3.848,20,3.634V2
	c0-1.105-0.895-2-2-2h-4c-1.105,0-2,0.895-2,2v1.634c-0.663,0.214-1.3,0.485-1.911,0.798l-1.16-1.16
	C8.538,2.882,8.027,2.686,7.515,2.686S6.491,2.882,6.101,3.272L3.272,6.1c-0.781,0.781-0.781,2.047,0,2.828l1.16,1.16
	C4.118,10.7,3.848,11.337,3.634,12H2c-1.105,0-2,0.895-2,2v4c0,1.105,0.895,2,2,2h1.634c0.214,0.663,0.485,1.3,0.798,1.911
	l-1.16,1.16c-0.781,0.781-0.781,2.047,0,2.828l2.828,2.828c0.391,0.391,0.902,0.586,1.414,0.586s1.024-0.195,1.414-0.586l1.16-1.16
	c0.612,0.313,1.248,0.584,1.911,0.798V30c0,1.105,0.895,2,2,2h4c1.105,0,2-0.895,2-2v-1.634c0.663-0.214,1.3-0.485,1.911-0.798
	l1.16,1.16c0.391,0.391,0.902,0.586,1.414,0.586s1.024-0.195,1.414-0.586l2.828-2.828c0.781-0.781,0.781-2.047,0-2.828l-1.16-1.16
	c0.313-0.612,0.584-1.248,0.798-1.911H30c1.105,0,2-0.895,2-2v-4C32,12.895,31.105,12,30,12z M16,21c-2.761,0-5-2.239-5-5
	s2.239-5,5-5s5,2.239,5,5S18.761,21,16,21z"/>
</svg>