<svg width="48" height="48" viewBox="0 0 48 48" fill="none" xmlns="http://www.w3.org/2000/svg">
<g clip-path="url(#clip0_864_5093)">
<path fill-rule="evenodd" clip-rule="evenodd" d="M30 3.59941C30.1596 3.4729 30.301 3.32481 30.42 3.15941C30.5381 3.00038 30.645 2.83331 30.74 2.65941C31.54 0.979407 31.58 0.659407 31.2 0.299407C30.82 -0.0605933 30.7 -0.300593 28.92 1.17941C28.7592 1.30382 28.6117 1.44457 28.48 1.59941C28.3553 1.75808 28.2417 1.92514 28.14 2.09941C27.24 4.09941 27.6 4.25941 27.74 4.39941C28.22 4.81941 29.84 3.71941 30 3.59941Z" fill="black"/>
<path fill-rule="evenodd" clip-rule="evenodd" d="M39.8005 9.15943C40.0017 9.0754 40.1957 8.97507 40.3805 8.85943C42.3805 7.73943 42.3805 7.51943 42.2405 7.09943C42.1005 6.67943 41.8205 6.31943 39.6005 6.65943C39.3622 6.69818 39.1279 6.75843 38.9005 6.83943C38.6694 6.92139 38.448 7.02871 38.2405 7.15943C38.2405 7.15943 36.3405 8.53943 36.6405 9.15943C36.6405 9.35943 36.8405 9.79943 39.1605 9.35943C39.3791 9.31079 39.5932 9.24389 39.8005 9.15943Z" fill="black"/>
<path fill-rule="evenodd" clip-rule="evenodd" d="M43.0807 20.8393C42.8736 20.6122 42.646 20.4046 42.4007 20.2193C42.1583 20.021 41.897 19.8469 41.6207 19.6993C41.3607 19.5793 39.0207 18.4793 38.6007 19.2393C38.4607 19.4793 38.1807 19.6193 40.2407 21.6393C40.4354 21.8404 40.6498 22.0213 40.8807 22.1793C41.1081 22.3575 41.3488 22.518 41.6007 22.6593C43.8207 23.9793 44.1807 23.9793 44.5207 23.5393C44.8607 23.0993 44.8207 22.7593 43.0807 20.8393Z" fill="black"/>
<path fill-rule="evenodd" clip-rule="evenodd" d="M6.86 11.2C6.65859 11.1281 6.45108 11.0745 6.24 11.04H5.62C3.24 11.22 3.34 11.76 3.32 11.96C3.3 12.16 3.32 12.62 5.32 13.36C5.50181 13.4291 5.68915 13.4826 5.88 13.52C6.07899 13.5485 6.28101 13.5485 6.48 13.52C8.66 13.4 8.66 12.96 8.7 12.76C8.8 12.16 7.04 11.28 6.86 11.2Z" fill="black"/>
<path fill-rule="evenodd" clip-rule="evenodd" d="M5.78085 22.4197C5.54792 22.5517 5.33284 22.7131 5.14085 22.8997C4.93002 23.0696 4.74771 23.2722 4.60085 23.4997C2.98085 25.6997 3.50085 25.9997 3.68085 26.1597C3.86085 26.3197 4.22085 26.5197 6.22085 25.1797L6.78085 24.7797L7.28085 24.2797C8.70085 22.5797 8.74085 22.2797 8.52085 21.9997C8.30085 21.7197 6.22085 22.1797 5.78085 22.4197Z" fill="black"/>
<path fill-rule="evenodd" clip-rule="evenodd" d="M26.5407 18.3194C25.7886 18.136 25.013 18.0686 24.2407 18.1195V16.6795V15.4394C24.9778 15.519 25.699 15.7078 26.3806 15.9995C26.4552 16.0414 26.5374 16.0679 26.6224 16.0775C26.7075 16.0871 26.7935 16.0795 26.8756 16.0553C26.9576 16.0311 27.0339 15.9906 27.1001 15.9364C27.1662 15.8821 27.2208 15.8152 27.2607 15.7394C27.3018 15.6637 27.3273 15.5803 27.3355 15.4945C27.3436 15.4086 27.3344 15.322 27.3082 15.2398C27.2821 15.1576 27.2396 15.0815 27.1833 15.0162C27.127 14.9508 27.0581 14.8975 26.9806 14.8594C26.1144 14.4052 25.1721 14.1138 24.2007 13.9995V10.9794C24.2175 10.8074 24.1662 10.6356 24.0578 10.5009C23.9493 10.3663 23.7924 10.2796 23.6207 10.2595C23.4496 10.2476 23.2804 10.3007 23.1469 10.4083C23.0134 10.5158 22.9254 10.6698 22.9007 10.8395C22.7207 11.8395 22.5806 12.8394 22.4007 13.8594C21.8673 13.8865 21.338 13.9669 20.8207 14.0995C20.3846 14.1742 19.9678 14.3348 19.5944 14.5719C19.221 14.809 18.8984 15.118 18.6453 15.4808C18.3923 15.8436 18.2138 16.2531 18.1203 16.6855C18.0268 17.1179 18.0201 17.5645 18.1007 17.9995C18.1552 18.5344 18.3637 19.0421 18.7009 19.461C19.0381 19.8799 19.4896 20.192 20.0007 20.3595C20.591 20.5691 21.2143 20.6707 21.8407 20.6594V21.6394C21.8407 22.4994 22.0007 23.3595 22.0807 24.1995C20.826 24.2656 19.5878 23.8906 18.5807 23.1394C18.5134 23.0693 18.4327 23.0134 18.3434 22.9753C18.254 22.9371 18.1578 22.9174 18.0606 22.9174C17.9635 22.9174 17.8673 22.9371 17.7779 22.9753C17.6886 23.0134 17.6079 23.0693 17.5407 23.1394C17.4039 23.278 17.3271 23.4648 17.3271 23.6594C17.3271 23.8541 17.4039 24.0409 17.5407 24.1795C18.842 25.306 20.4996 25.9364 22.2206 25.9594C22.2206 26.4794 22.3206 26.9995 22.3806 27.4995C22.3806 27.6957 22.4586 27.8839 22.5974 28.0227C22.7362 28.1615 22.9244 28.2395 23.1207 28.2395C23.3169 28.2395 23.5051 28.1615 23.6439 28.0227C23.7827 27.8839 23.8607 27.6957 23.8607 27.4995V25.9994C24.4093 25.9534 24.9519 25.8529 25.4806 25.6995C26.0344 25.5837 26.5584 25.3552 27.0199 25.0281C27.4815 24.7011 27.8707 24.2824 28.1634 23.7983C28.4561 23.3143 28.646 22.7751 28.7212 22.2144C28.7965 21.6537 28.7554 21.0836 28.6007 20.5395C28.491 20.0173 28.2414 19.5349 27.8785 19.1438C27.5156 18.7527 27.0531 18.4678 26.5407 18.3194ZM20.3006 17.5795C20.0006 16.3595 20.9207 15.7994 22.0606 15.5795C22.0606 15.9195 21.9206 16.2595 21.8806 16.5995C21.8406 16.9395 21.8806 17.6795 21.8806 18.2394C21.6215 18.2699 21.3598 18.2699 21.1007 18.2394C20.9085 18.2512 20.7191 18.1896 20.5706 18.0671C20.4221 17.9446 20.3256 17.7703 20.3006 17.5795ZM24.0007 23.9994L24.1207 21.6594V20.6195H24.2407C24.6658 20.5681 25.0955 20.5681 25.5207 20.6195C25.8607 20.6195 26.1607 20.7794 26.2607 21.1394C26.8007 22.7394 25.5207 23.5995 24.0007 23.9994Z" fill="black"/>
<path fill-rule="evenodd" clip-rule="evenodd" d="M23.3603 5.5395C17.3603 5.5395 11.3603 8.6195 9.56026 13.6595C8.98892 15.106 8.71905 16.6539 8.76719 18.2084C8.81534 19.7629 9.18049 21.2911 9.84026 22.6995C11.3583 25.3829 13.3193 27.7902 15.6403 29.8195C16.6603 30.8595 17.5003 31.6795 17.5403 32.4995C17.544 32.6261 17.5937 32.747 17.6803 32.8395H16.3203C16.1482 32.8226 15.9764 32.8739 15.8417 32.9824C15.7071 33.0908 15.6204 33.2478 15.6003 33.4195C15.6002 33.5453 15.6384 33.6682 15.7099 33.7718C15.7813 33.8754 15.8826 33.9548 16.0003 33.9995C15.9168 34.0282 15.841 34.0755 15.7786 34.1379C15.7163 34.2003 15.6689 34.2761 15.6403 34.3595C15.4226 34.7365 15.308 35.1642 15.308 35.5995C15.308 36.0348 15.4226 36.4625 15.6403 36.8395C15.9833 37.342 16.4431 37.7538 16.9803 38.0395C16.859 38.6996 16.7921 39.3685 16.7803 40.0395C16.7736 40.6199 16.9184 41.1921 17.2003 41.6995C17.5889 42.3465 18.1689 42.8567 18.8603 43.1595C18.9771 43.2084 19.0974 43.2485 19.2203 43.2795C19.1378 43.9888 19.1853 44.7072 19.3603 45.3995C19.5697 46.0325 19.9341 46.6032 20.4203 47.0595C20.8874 47.4394 21.4241 47.7247 22.0003 47.8995C22.5989 48.0393 23.2217 48.0393 23.8203 47.8995C24.4533 47.801 25.0386 47.5038 25.4916 47.0508C25.9446 46.5978 26.2418 46.0125 26.3403 45.3795C26.3675 45.2849 26.3757 45.1859 26.3642 45.0882C26.3527 44.9904 26.3219 44.896 26.2735 44.8103C26.225 44.7246 26.16 44.6495 26.0822 44.5892C26.0044 44.529 25.9153 44.4849 25.8203 44.4595C25.6323 44.4157 25.4346 44.445 25.2675 44.5416C25.1003 44.6382 24.9762 44.7947 24.9203 44.9795C24.8225 45.1781 24.6757 45.3485 24.4937 45.4745C24.3117 45.6005 24.1006 45.678 23.8803 45.6995C23.6031 45.7159 23.3253 45.682 23.0603 45.5995C22.6406 45.5234 22.2438 45.3523 21.9003 45.0995C21.5474 44.9217 21.2551 44.6433 21.0603 44.2995C20.9661 44.087 20.8925 43.866 20.8403 43.6395L21.6403 43.7395C22.7055 43.8184 23.7751 43.8184 24.8403 43.7395C26.0514 43.6213 27.2101 43.1868 28.2003 42.4795C28.8216 41.9871 29.2826 41.3212 29.5248 40.5662C29.7669 39.8113 29.7793 39.0015 29.5603 38.2395C30.1269 37.9965 30.6478 37.6583 31.1003 37.2395C31.4255 36.9695 31.6568 36.6034 31.761 36.1938C31.8652 35.7842 31.8369 35.3521 31.6803 34.9595C31.6595 34.866 31.6197 34.7777 31.5634 34.7001C31.5071 34.6226 31.4355 34.5574 31.353 34.5087C31.2705 34.4599 31.1789 34.4286 31.0838 34.4167C30.9887 34.4048 30.8922 34.4126 30.8003 34.4395C30.7056 34.4629 30.6164 34.5048 30.538 34.5627C30.4595 34.6207 30.3933 34.6936 30.3431 34.7772C30.2929 34.8608 30.2598 34.9536 30.2455 35.0501C30.2313 35.1466 30.2363 35.2449 30.2603 35.3395C30.3603 35.7395 30.1603 35.7795 29.9203 35.9995C29.261 36.3967 28.5246 36.649 27.7603 36.7395C26.3023 37.004 24.8218 37.1246 23.3403 37.0995C22.461 37.1497 21.5795 37.1497 20.7003 37.0995C20.4603 37.0995 17.5803 36.9395 16.9603 36.1395C16.8452 35.9832 16.772 35.8002 16.7475 35.6077C16.723 35.4152 16.748 35.2196 16.8203 35.0395C16.8607 34.9258 16.8671 34.8029 16.8387 34.6856C16.8102 34.5684 16.7482 34.462 16.6603 34.3795C18.2506 34.7664 19.8592 35.0735 21.4803 35.2995C22.2573 35.3872 23.0383 35.4339 23.8203 35.4395C24.6085 35.4399 25.3962 35.3999 26.1803 35.3195C28.0269 35.1284 29.8455 34.7257 31.6003 34.1195C31.6948 34.0959 31.7838 34.0538 31.8621 33.9958C31.9404 33.9378 32.0065 33.8649 32.0567 33.7813C32.1068 33.6978 32.14 33.6051 32.1543 33.5087C32.1687 33.4123 32.1639 33.314 32.1403 33.2195C32.1166 33.1249 32.0746 33.036 32.0166 32.9577C31.9585 32.8794 31.8857 32.8132 31.8021 32.7631C31.7185 32.713 31.6259 32.6798 31.5295 32.6654C31.4331 32.6511 31.3348 32.6559 31.2403 32.6795C30.8203 32.6795 30.4003 32.6795 29.9803 32.8195C30.3709 31.9503 30.8536 31.1256 31.4203 30.3595C33.6625 27.5492 35.4756 24.4218 36.8003 21.0795C37.5609 18.8218 37.5609 16.3772 36.8003 14.1195C34.8403 8.2195 29.1603 5.4995 23.3603 5.5395ZM23.3603 39.5395C24.922 39.4901 26.4696 39.2277 27.9603 38.7595C27.9899 39.1457 27.9188 39.5329 27.7541 39.8835C27.5893 40.234 27.3365 40.5358 27.0203 40.7595C26.2655 41.1182 25.4354 41.2897 24.6003 41.2595C23.6409 41.3103 22.6796 41.3103 21.7203 41.2595C21.0462 41.2911 20.3713 41.2168 19.7203 41.0395C19.3617 40.9806 19.0381 40.7902 18.8125 40.5054C18.5869 40.2206 18.4755 39.862 18.5003 39.4995V38.8395C20.1025 39.3216 21.7671 39.5642 23.4403 39.5595L23.3603 39.5395ZM34.8803 20.3795C33.7316 23.5824 32.0993 26.5906 30.0403 29.2995C29.2944 30.382 28.7272 31.5772 28.3603 32.8395H25.3803H22.4003H18.6803C18.7695 32.7311 18.8251 32.5991 18.8403 32.4595C18.5339 31.0441 17.7758 29.7666 16.6803 28.8195C14.575 26.8651 12.8285 24.5569 11.5203 21.9995C11.005 20.8129 10.7391 19.5331 10.7391 18.2395C10.7391 16.9459 11.005 15.6661 11.5203 14.4795C13.2603 10.2595 18.3603 7.9995 23.3803 7.9995C28.4003 7.9995 33.0203 9.9995 34.8003 14.7195C35.4743 16.5442 35.5305 18.5397 34.9603 20.3995L34.8803 20.3795Z" fill="black"/>
<path fill-rule="evenodd" clip-rule="evenodd" d="M13.74 2.68002C13.7956 2.90469 13.8831 3.12022 14 3.32002C14.1106 3.51709 14.2377 3.70442 14.38 3.88002C14.38 3.88002 15.86 5.62002 16.38 5.30002C16.9 4.98002 16.38 2.84002 16.38 2.78002C16.3191 2.56347 16.2318 2.35523 16.12 2.16002C16.0355 1.9718 15.9352 1.79114 15.82 1.62002C14.42 -0.139979 14.12 -0.0999788 13.82 0.100021C13.52 0.300021 13.1 0.520021 13.74 2.68002Z" fill="black"/>
</g>
<defs>
<clipPath id="clip0_864_5093">
<rect width="48" height="48" fill="white"/>
</clipPath>
</defs>
</svg>
