<!DOCTYPE svg PUBLIC "-//W3C//DTD SVG 1.1//EN" "http://www.w3.org/Graphics/SVG/1.1/DTD/svg11.dtd">
<!-- Uploaded to: SVG Repo, www.svgrepo.com, Transformed by: SVG Repo Mixer Tools -->
<svg width="64px" height="64px" viewBox="0 0 120 120" id="Layer_1" version="1.1" xml:space="preserve" xmlns="http://www.w3.org/2000/svg" xmlns:xlink="http://www.w3.org/1999/xlink" fill="#000000">
<g id="SVGRepo_bgCarrier" stroke-width="0"/>
<g id="SVGRepo_tracerCarrier" stroke-linecap="round" stroke-linejoin="round"/>
<g id="SVGRepo_iconCarrier"> <style type="text/css"> .st0{fill:#FFB562;} .st1{fill:#3F3F3F;} .st2{fill:#F87474;} .st3{fill:#3AB0FF;} .st4{fill:#FFFFFF;} </style> <g> <g> <ellipse class="st0" cx="18.6" cy="64.9" rx="6.6" ry="6.6" transform="matrix(0.7071 -0.7071 0.7071 0.7071 -40.471 32.1518)"/> <ellipse class="st0" cx="101.4" cy="64.9" rx="6.6" ry="6.6" transform="matrix(0.9732 -0.2298 0.2298 0.9732 -12.2044 25.0397)"/> </g> <g> <path class="st0" d="M96.4,52.8h-5.6C90.8,35.8,77,22,60,22c-17,0-30.8,13.8-30.8,30.8h-5.6c0-20.1,16.3-36.4,36.4-36.4 S96.4,32.7,96.4,52.8z"/> </g> <g> <path class="st1" d="M69.3,101.4c-2.4,0-4-0.1-4.2-0.1l0.2-2.2c0.2,0,22.9,1.7,25.6-7.7c3-10.4,1.5-21.4,1.5-21.5l2.2-0.3 C94.7,70,96.2,81.1,93,92C90.5,100.3,76.5,101.4,69.3,101.4z"/> </g> <path class="st2" d="M70.3,103.6H60.2c-0.9,0-1.6-0.7-1.6-1.6v-4c0-0.9,0.7-1.6,1.6-1.6h10.1c0.9,0,1.6,0.7,1.6,1.6v4 C71.9,102.9,71.2,103.6,70.3,103.6z"/> <path class="st3" d="M77.1,72.6H60l-12.4,7.4c-0.5,0.3-1.1-0.2-1-0.7l1.8-6.7h-5.5c-1.5,0-2.8-1.3-2.8-2.8V48.4 c0-1.5,1.3-2.8,2.8-2.8h34.1c1.5,0,2.8,1.3,2.8,2.8v21.5C79.9,71.4,78.6,72.6,77.1,72.6z"/> <g> <path class="st4" d="M60,57c-1.2,0-2.1,1-2.1,2.1s1,2.1,2.1,2.1c1.2,0,2.1-1,2.1-2.1S61.2,57,60,57z"/> <path class="st4" d="M51.4,57c-1.2,0-2.1,1-2.1,2.1s1,2.1,2.1,2.1c1.2,0,2.1-1,2.1-2.1S52.6,57,51.4,57z"/> <path class="st4" d="M68.6,57c-1.2,0-2.1,1-2.1,2.1s1,2.1,2.1,2.1c1.2,0,2.1-1,2.1-2.1S69.8,57,68.6,57z"/> </g> <g> <path class="st2" d="M29.6,50.9h-8.8c-2.7,0-4.9,2.2-4.9,4.9v19.6c0,2.7,2.2,4.9,4.9,4.9h8.8c1.9,0,3.4-1.5,3.4-3.4V54.2 C32.9,52.4,31.4,50.9,29.6,50.9z"/> <path class="st2" d="M99.2,50.9h-8.8c-1.9,0-3.4,1.5-3.4,3.4v22.6c0,1.9,1.5,3.4,3.4,3.4h8.8c2.7,0,4.9-2.2,4.9-4.9V55.7 C104.1,53,101.9,50.9,99.2,50.9z"/> </g> </g> </g>
</svg>