<svg width="48" height="48" viewBox="0 0 48 48" fill="none" xmlns="http://www.w3.org/2000/svg">
<g clip-path="url(#clip0_864_5148)">
<path fill-rule="evenodd" clip-rule="evenodd" d="M19.68 41.36C19.68 41.36 13.92 41.5 8.98 41.36C7.12422 41.333 5.27278 41.1726 3.44 40.88C3.25011 40.8244 3.0685 40.7437 2.9 40.64L3.42 38.28C3.56 37.38 3.7 36.16 3.82 34.82C4.08 32.06 4.3 28.82 4.5 26.82C4.72005 23.5504 4.72005 20.2696 4.5 17C4.26 12.26 3.7 7.54 3.22 2.88L18 2.3C19.06 2.3 20.5 2.12 21.86 2.12H22.94L22.08 5.28C21.701 6.48195 21.4201 7.71265 21.24 8.96C21.1397 9.71539 21.2946 10.4826 21.68 11.14C22.0235 11.6023 22.5194 11.9282 23.08 12.06C23.9477 12.2412 24.838 12.2884 25.72 12.2C27.62 12 29.62 11.52 31.58 11.38C32.1193 11.34 32.6607 11.34 33.2 11.38C33.7468 12.7584 34.136 14.1942 34.36 15.66C34.6259 17.7631 34.7661 19.8802 34.78 22C34.78 22.0831 34.7966 22.1654 34.829 22.242C34.8614 22.3185 34.9089 22.3878 34.9686 22.4456C35.0283 22.5035 35.099 22.5487 35.1766 22.5787C35.2541 22.6086 35.3369 22.6227 35.42 22.62C35.5757 22.6054 35.7207 22.5343 35.8276 22.42C35.9345 22.3058 35.9958 22.1564 36 22C36.1459 19.4235 36.0521 16.8391 35.72 14.28C35.4229 12.542 34.9263 10.8441 34.24 9.22C33.8882 8.46979 33.3999 7.79159 32.8 7.22C31.66 6 30 4.84 29.26 4.12C28.52 3.4 27.52 2.24 26.5 1.4C25.9982 0.967129 25.4312 0.616147 24.82 0.36C24.089 0.127214 23.3271 0.0058524 22.56 0C21 0 19.2 0.24 18 0.32L2.44 1.82C2.36467 1.8225 2.29061 1.84018 2.22228 1.87198C2.15394 1.90378 2.09273 1.94905 2.0423 2.00507C1.99188 2.0611 1.95329 2.12673 1.92884 2.19802C1.90438 2.26932 1.89458 2.34482 1.9 2.42C1.91461 2.50573 1.94708 2.58743 1.99532 2.65979C2.04356 2.73214 2.10648 2.79355 2.18 2.84C2.42 7.54 2.74 12.3 2.8 17.08C2.86064 20.2723 2.72036 23.4653 2.38 26.64L1.38 38C1.38 38.52 0.960001 39.76 0.920001 40.6C0.885334 40.9695 0.947364 41.3417 1.1 41.68C1.23537 41.9873 1.47671 42.2358 1.78 42.38C2.92792 42.7652 4.12924 42.9677 5.34 42.98C10.54 43.26 19.74 42.68 19.74 42.68C19.8321 42.6965 19.9267 42.6926 20.0172 42.6685C20.1076 42.6444 20.1917 42.6008 20.2635 42.5408C20.3352 42.4807 20.393 42.4056 20.4326 42.3208C20.4722 42.236 20.4927 42.1436 20.4927 42.05C20.4927 41.9564 20.4722 41.864 20.4326 41.7792C20.393 41.6944 20.3352 41.6193 20.2635 41.5592C20.1917 41.4992 20.1076 41.4556 20.0172 41.4315C19.9267 41.4074 19.8321 41.4035 19.74 41.42L19.68 41.36ZM25.52 3.36C26.36 4.12 27.2 5.04 27.82 5.62C28.44 6.2 30.28 7.5 31.5 8.62C31.9301 8.97235 32.3014 9.39092 32.6 9.86L31.6 10C29.6 10 27.6 10.24 25.6 10.24C25.1074 10.2791 24.6126 10.2791 24.12 10.24C23.84 10.24 23.54 10.24 23.4 10.06C23.2715 9.63619 23.2715 9.18381 23.4 8.76C23.4 7.58 23.72 6.3 23.78 5.7L24.22 2.54C24.6922 2.75462 25.1303 3.03766 25.52 3.38V3.36Z" fill="black"/>
<path fill-rule="evenodd" clip-rule="evenodd" d="M45.42 25.66C44.6281 24.8646 43.6147 24.3265 42.5122 24.116C41.4097 23.9055 40.2693 24.0324 39.24 24.48C37.4785 25.5011 35.8918 26.7975 34.54 28.32C31.56 31.36 28.1 35.54 26 38C25.8751 37.9648 25.7416 37.9757 25.6241 38.0308C25.5066 38.0859 25.4128 38.1815 25.36 38.3V38.5C25.259 38.609 25.202 38.7515 25.2 38.9C25 39.34 24.76 39.78 24.56 40.24C24.36 40.7 24.18 41.16 24.02 41.62L23.32 43.74C23.0477 44.4738 22.8403 45.23 22.7 46C22.6653 46.5766 22.8432 47.1459 23.2 47.6C23.3168 47.7204 23.4518 47.8216 23.6 47.9C23.8626 47.9636 24.1303 48.0037 24.4 48.02C24.6725 48.0506 24.9475 48.0506 25.22 48.02C25.54 48.02 25.86 47.84 26.18 47.76L31.58 45.88H31.68C31.7603 45.8842 31.8407 45.8722 31.9163 45.8447C31.9919 45.8172 32.0611 45.7748 32.12 45.72C34 44.2 39.24 40.44 42.88 36.98C44.5297 35.6023 45.8603 33.8826 46.78 31.94C47.172 30.872 47.2523 29.7146 47.0115 28.6026C46.7707 27.4907 46.2188 26.4702 45.42 25.66ZM43.9 27.18C44.3936 27.7056 44.7359 28.3548 44.8908 29.0589C45.0457 29.763 45.0074 30.4959 44.78 31.18C44.7014 31.4091 44.6009 31.6302 44.48 31.84C44.04 31.5 43.62 31.14 43.24 30.78C42.86 30.42 42.1 29.54 41.54 28.9C40.98 28.26 40.2 27.42 39.54 26.66L40 26.4C40.6659 26.1021 41.4075 26.0171 42.1235 26.1567C42.8395 26.2963 43.4949 26.6537 44 27.18H43.9ZM35.9 29.64C36.7059 28.8609 37.5538 28.1265 38.44 27.44C38.7449 28.2063 39.1198 28.9427 39.56 29.64C39.7038 29.8651 39.8642 30.079 40.04 30.28C39.06 31.04 37.7 32.06 36.04 33.38C34.7758 34.4505 33.5675 35.5853 32.42 36.78C31.24 38 30.04 39.34 28.78 40.78L28.38 40.38C27.8381 39.8945 27.2634 39.4467 26.66 39.04C28.84 36.7 32.62 32.6 35.84 29.64H35.9ZM25.74 45.64L24.88 45.74C24.9198 45.6287 24.9532 45.5152 24.98 45.4C24.98 44.86 25.22 44.36 25.26 44.08L25.54 42C25.6313 41.4409 25.7515 40.8868 25.9 40.34C26.22 40.8 26.52 41.28 26.86 41.74C27.11 42.0672 27.377 42.381 27.66 42.68C27.94 43 28.24 43.28 28.54 43.58L30.06 44.86L25.74 45.64ZM41.74 35.4C38.42 38.8 33.74 42.54 31.74 44.24C31.22 43.54 30.76 42.8 30.22 42.08L29.84 41.62C31.28 40.42 32.68 39.28 33.98 38.16C34.62 37.6 35.24 37.06 35.82 36.52C36.4 35.98 37.06 35.36 37.6 34.8C39.04 33.34 40.16 32.08 40.98 31.14C41.2254 31.3892 41.4859 31.623 41.76 31.84C42.3807 32.3121 43.0514 32.7145 43.76 33.04C43.12 33.84 42.38 34.64 41.58 35.48L41.74 35.4Z" fill="black"/>
<path fill-rule="evenodd" clip-rule="evenodd" d="M21.18 26C20.9331 25.848 20.6499 25.7652 20.36 25.76C19.4206 25.7107 18.4794 25.7107 17.54 25.76C15.2479 25.8659 12.9639 26.1063 10.7 26.48C10.6903 26.4204 10.6903 26.3596 10.7 26.3V21.74C10.8035 21.7766 10.9165 21.7766 11.02 21.74C11.74 21.74 18.5 22.22 23.54 21.9C25.5553 21.9529 27.5468 21.455 29.3 20.46C29.517 20.2576 29.6641 19.9914 29.72 19.7C29.7715 19.0343 29.7715 18.3656 29.72 17.7V16.36C29.7123 16.0325 29.6302 15.7111 29.48 15.42C29.3572 15.2246 29.1899 15.0611 28.9917 14.9429C28.7936 14.8247 28.5702 14.7552 28.34 14.74C27.2274 14.6825 26.1126 14.6825 25 14.74L10.24 15.66L10 13.8C10.0027 13.7264 9.99083 13.6531 9.96513 13.5841C9.93943 13.5151 9.90039 13.4519 9.85023 13.398C9.80008 13.3442 9.7398 13.3007 9.67284 13.2702C9.60588 13.2396 9.53356 13.2226 9.46 13.22C9.31286 13.2196 9.17109 13.2752 9.0634 13.3755C8.95571 13.4757 8.89015 13.6132 8.88 13.76L8.58 20.86V34.44C8.5582 34.53 8.55619 34.6236 8.5741 34.7144C8.59201 34.8053 8.62941 34.8912 8.68373 34.9661C8.73805 35.0411 8.80799 35.1034 8.88873 35.1487C8.96947 35.1941 9.05908 35.2213 9.15138 35.2286C9.24367 35.236 9.33646 35.2232 9.42334 35.1912C9.51021 35.1591 9.58911 35.1087 9.65458 35.0432C9.72004 34.9777 9.77053 34.8988 9.80254 34.8119C9.83455 34.7251 9.84733 34.6323 9.84 34.54C9.96 33.58 10.08 32.54 10.18 31.58C10.301 31.7046 10.4663 31.7764 10.64 31.78C12.1 31.78 16.24 32.04 18.8 31.92C19.6338 31.9091 20.4594 31.7534 21.24 31.46C21.4898 31.3036 21.6745 31.062 21.76 30.78C21.76 30.56 21.76 30 21.86 29.9C21.9933 29.0787 21.9933 28.2413 21.86 27.42C21.8091 26.8809 21.5681 26.3775 21.18 26ZM25.06 17.02H27.56V17.84C27.56 17.96 27.78 18.66 27.8 19.08C27.3689 19.3371 26.8944 19.5134 26.4 19.6C24.8272 19.9529 23.2288 20.1803 21.62 20.28C16.94 20.64 11.62 20.54 10.92 20.6C10.8239 20.6264 10.735 20.6743 10.66 20.74L10.36 17.02H25.06ZM19.88 29.78C19.2197 29.9144 18.5518 30.0079 17.88 30.06C15.36 30.3 12.08 30.4 10.8 30.5C10.687 30.5243 10.5831 30.5797 10.5 30.66C10.5 29.66 10.66 28.66 10.72 27.66C11.44 27.66 12.48 27.56 13.64 27.56C15.64 27.56 17.82 27.68 19.22 27.78H20.06C20.0699 27.8463 20.0699 27.9137 20.06 27.98C20.07 28.1598 20.07 28.3401 20.06 28.52C20.06 28.96 19.96 29.38 19.94 29.66C19.9149 29.6972 19.8947 29.7375 19.88 29.78Z" fill="black"/>
</g>
<defs>
<clipPath id="clip0_864_5148">
<rect width="48" height="48" fill="white"/>
</clipPath>
</defs>
</svg>
