<?xml version="1.0" encoding="utf-8"?><!-- Uploaded to: SVG Repo, www.svgrepo.com, Generator: SVG Repo Mixer Tools -->
<svg version="1.1" id="Uploaded to svgrepo.com" xmlns="http://www.w3.org/2000/svg" xmlns:xlink="http://www.w3.org/1999/xlink" 
	 width="800px" height="800px" viewBox="0 0 32 32" xml:space="preserve">
<style type="text/css">
	.stone_een{fill:#0B1719;}
</style>
<path class="stone_een" d="M19,13.5c0,0.276-0.224,0.5-0.5,0.5h-5c-0.276,0-0.5-0.224-0.5-0.5s0.224-0.5,0.5-0.5h5
	C18.776,13,19,13.224,19,13.5z M4,9h24c0.552,0,1-0.448,1-1V6c0-1.657-1.343-3-3-3H6C4.343,3,3,4.343,3,6v2C3,8.552,3.448,9,4,9z
	 M28,10v16c0,1.657-1.343,3-3,3H7c-1.657,0-3-1.343-3-3V10H28z M20,13.5c0-0.828-0.672-1.5-1.5-1.5h-5c-0.828,0-1.5,0.672-1.5,1.5
	s0.672,1.5,1.5,1.5h5C19.328,15,20,14.328,20,13.5z"/>
</svg>