<svg width="48" height="48" viewBox="0 0 48 48" fill="none" xmlns="http://www.w3.org/2000/svg">
<g clip-path="url(#clip0_864_5120)">
<path fill-rule="evenodd" clip-rule="evenodd" d="M19.48 36.5599C18.663 36.3808 17.8607 36.1401 17.08 35.8399C16.3152 35.5542 15.5842 35.1854 14.9 34.7399C13.7105 33.9857 12.7239 32.9514 12.0266 31.7276C11.3293 30.5038 10.9425 29.1278 10.9 27.7199C10.8058 24.8844 11.6884 22.1025 13.4 19.8399C14.4919 18.3231 15.9057 17.0665 17.54 16.1599C19.1946 15.2834 21.0128 14.7591 22.88 14.6199C25.3619 14.4765 27.83 15.0776 29.968 16.3462C32.106 17.6147 33.8164 19.4929 34.88 21.7399C35.5141 22.8019 35.9266 23.9813 36.0925 25.2071C36.2584 26.4328 36.1744 27.6794 35.8455 28.8718C35.5165 30.0641 34.9495 31.1775 34.1786 32.1448C33.4077 33.1121 32.4489 33.9132 31.36 34.4999C31.2698 34.5516 31.1909 34.6208 31.1278 34.7034C31.0647 34.786 31.0188 34.8804 30.9927 34.981C30.9666 35.0816 30.9609 35.1864 30.9759 35.2893C30.9909 35.3921 31.0263 35.4909 31.08 35.5799C31.1297 35.6694 31.197 35.748 31.2778 35.8109C31.3587 35.8737 31.4513 35.9196 31.5503 35.9458C31.6493 35.9719 31.7526 35.9778 31.8539 35.963C31.9553 35.9483 32.0526 35.9132 32.14 35.8599C38.56 32.3399 39.3 26.0399 36.88 20.7799C35.6656 18.1025 33.6912 15.8411 31.2021 14.2765C28.7131 12.712 25.8192 11.9134 22.88 11.9799C20.628 12.128 18.4361 12.7698 16.46 13.8599C14.016 15.2391 12.0205 17.2925 10.7119 19.775C9.40324 22.2575 8.83674 25.0642 9.08 27.8599C9.17652 29.5306 9.67402 31.1535 10.5304 32.5913C11.3868 34.029 12.5769 35.2394 14 36.1199C14.7981 36.5813 15.6428 36.9567 16.52 37.2399C17.3683 37.5318 18.2374 37.7591 19.12 37.9199C19.3055 37.9554 19.4975 37.9166 19.6546 37.8118C19.8117 37.7071 19.9214 37.5448 19.96 37.3599C19.9923 37.1909 19.9613 37.0159 19.8727 36.8683C19.7842 36.7207 19.6444 36.6109 19.48 36.5599Z" fill="black"/>
<path fill-rule="evenodd" clip-rule="evenodd" d="M23.8 33.5999C24.7046 33.422 25.5479 33.0137 26.2486 32.4146C26.9493 31.8155 27.4837 31.0458 27.8 30.1799C27.8518 30.09 27.8847 29.9905 27.8966 29.8875C27.9084 29.7844 27.8991 29.68 27.8691 29.5807C27.8391 29.4814 27.7892 29.3893 27.7222 29.3101C27.6553 29.2308 27.5729 29.1661 27.48 29.1199C27.3901 29.0681 27.2906 29.0353 27.1876 29.0234C27.0845 29.0115 26.9801 29.0208 26.8808 29.0508C26.7815 29.0808 26.6894 29.1308 26.6102 29.1977C26.5309 29.2646 26.4662 29.347 26.42 29.4399C26.0305 30.0347 25.4719 30.4993 24.816 30.7738C24.1601 31.0483 23.4371 31.12 22.74 30.9799C22.3287 30.9321 21.9254 30.8312 21.54 30.6799C20.504 30.3499 19.6092 29.6806 19 28.7799C18.9671 28.6833 18.9129 28.5953 18.8413 28.5225C18.7697 28.4496 18.6827 28.3939 18.5866 28.3593C18.4906 28.3247 18.388 28.3122 18.2864 28.3227C18.1849 28.3332 18.087 28.3664 18 28.4199C17.8305 28.4945 17.6975 28.6331 17.63 28.8056C17.5626 28.978 17.5661 29.1701 17.64 29.3399C18.0565 30.8414 19.0196 32.1327 20.34 32.9599C20.9528 33.3183 21.6343 33.5432 22.34 33.6199C22.8249 33.6874 23.3172 33.6807 23.8 33.5999Z" fill="black"/>
<path fill-rule="evenodd" clip-rule="evenodd" d="M47.78 24.88C47.6554 24.3497 47.4603 23.8385 47.2 23.36C46.7276 22.5194 46.0853 21.7865 45.314 21.208C44.5426 20.6295 43.6592 20.2181 42.72 20C42.567 18.8237 42.3263 17.6604 42 16.52C41.2586 13.9612 39.967 11.5955 38.2154 9.58828C36.4639 7.58109 34.2948 5.98098 31.86 4.89997C29.2847 3.92668 26.5386 3.48686 23.7881 3.60719C21.0377 3.72752 18.3404 4.4055 15.86 5.59997C13.309 6.6441 11.0537 8.29917 9.29252 10.4196C7.53134 12.5399 6.31826 15.0607 5.76001 17.76C5.76001 18.24 5.76001 18.72 5.64001 19.2C4.62224 19.3898 3.65965 19.8043 2.82235 20.4132C1.98506 21.0221 1.29416 21.8102 0.800007 22.72C0.539673 23.1985 0.344605 23.7097 0.220007 24.24C-0.107821 25.3496 -0.107821 26.5303 0.220007 27.64C0.517822 28.4762 1.01941 29.225 1.67941 29.8187C2.33941 30.4123 3.13699 30.8321 4.00001 31.04C4.39761 31.1647 4.80608 31.2518 5.22001 31.3C5.6257 31.3398 6.03432 31.3398 6.44001 31.3C6.62311 31.2936 6.79848 31.2246 6.93682 31.1045C7.07515 30.9843 7.16806 30.8204 7.20001 30.64C7.28113 30.679 7.36999 30.6992 7.46001 30.6992C7.55002 30.6992 7.63888 30.679 7.72001 30.64C7.84243 30.5847 7.94576 30.4945 8.01695 30.3806C8.08813 30.2667 8.12399 30.1342 8.12001 30C7.65164 28.0296 7.35717 26.0219 7.24001 24C7.12858 22.0234 7.26972 20.0408 7.66001 18.1C8.28778 15.7977 9.45791 13.6793 11.0725 11.9221C12.687 10.1649 14.699 8.81997 16.94 7.99997C19.1109 6.95934 21.4684 6.36475 23.8731 6.25138C26.2779 6.13802 28.6809 6.50818 30.94 7.33997C33.0665 8.2361 34.9757 9.57833 36.5388 11.2759C38.1018 12.9735 39.2821 14.9869 40 17.18C41.514 21.7476 41.3795 26.7012 39.62 31.18C39.5812 31.2758 39.5618 31.3783 39.5629 31.4817C39.564 31.585 39.5857 31.6871 39.6266 31.782C39.6676 31.8769 39.727 31.9627 39.8014 32.0345C39.8758 32.1062 39.9637 32.1625 40.06 32.2C40.1836 32.2397 40.3165 32.2397 40.44 32.2C39.8842 33.3634 39.2142 34.4689 38.44 35.5C37.7007 36.5021 36.8333 37.4031 35.86 38.18C34.3633 39.5273 32.4333 40.2937 30.42 40.34C30.3311 40.1786 30.1879 40.0539 30.0159 39.988C29.8438 39.9222 29.654 39.9193 29.48 39.98C29.284 40.0599 29.1277 40.2142 29.0452 40.4091C28.9627 40.604 28.9609 40.8237 29.04 41.02C29.04 41.28 29.04 41.46 28.78 41.64C28.46 41.8836 28.0798 42.0357 27.68 42.08C27.1215 42.1863 26.5458 42.1589 26 42C25.4464 41.8644 24.9282 41.6121 24.48 41.26C24.14 41.02 23.88 40.86 24 40.62C24.1505 40.3281 24.3882 40.0905 24.68 39.94L26.04 39.5C26.4235 39.4369 26.8113 39.4035 27.2 39.4H28.44C28.6177 39.4289 28.7995 39.3861 28.9457 39.2812C29.0919 39.1762 29.1906 39.0175 29.22 38.84C29.2374 38.7493 29.2366 38.6562 29.2179 38.5658C29.1991 38.4754 29.1626 38.3897 29.1106 38.3135C29.0585 38.2373 28.9919 38.1721 28.9146 38.1217C28.8373 38.0714 28.7507 38.0368 28.66 38.02L26 37.58C25.6607 37.55 25.3193 37.55 24.98 37.58C24.6204 37.6077 24.265 37.6748 23.92 37.78C23.3531 37.9215 22.8317 38.2051 22.4048 38.604C21.9779 39.0029 21.6596 39.504 21.48 40.06C21.3486 40.6929 21.421 41.3513 21.6869 41.9405C21.9528 42.5298 22.3985 43.0197 22.96 43.34C23.7605 43.8684 24.6696 44.2102 25.62 44.34C26.5276 44.4318 27.4441 44.3156 28.3 44C29.119 43.6914 29.8192 43.1313 30.3 42.4C30.3874 42.2144 30.4545 42.02 30.5 41.82C32.5729 42.0957 34.6792 41.6885 36.5 40.66C38.1575 39.6959 39.536 38.3175 40.5 36.66C41.3747 35.2251 41.9907 33.6478 42.32 32H42.88C43.2927 31.9353 43.7004 31.8417 44.1 31.72C44.9337 31.4889 45.6987 31.0587 46.3293 30.4664C46.9599 29.8741 47.4372 29.1375 47.72 28.32C48.0825 27.2049 48.1034 26.007 47.78 24.88ZM5.46001 29.6C5.17331 29.5039 4.89278 29.3904 4.62001 29.26C4.1525 29.0317 3.74247 28.701 3.42044 28.2924C3.09841 27.8838 2.87267 27.4079 2.76001 26.9C2.62586 26.24 2.62586 25.5599 2.76001 24.9C2.89902 24.0793 3.21184 23.2979 3.6775 22.608C4.14316 21.9182 4.75091 21.3358 5.46001 20.9C5.44012 21.9947 5.48018 23.0896 5.58001 24.18C5.77993 26.1494 6.15474 28.097 6.70001 30C6.58001 30 6.50001 29.86 6.36001 29.86L5.46001 29.6ZM43.46 29.88C40.44 31.34 43.26 28 42.92 21.64C44.1833 22.561 45.0373 23.9388 45.3 25.48C45.4315 26.1402 45.4315 26.8198 45.3 27.48C45.188 28.0015 44.9562 28.4898 44.6229 28.9063C44.2897 29.3228 43.8642 29.6562 43.38 29.88H43.46Z" fill="black"/>
<path fill-rule="evenodd" clip-rule="evenodd" d="M17.66 21.0199C17.2983 21.0099 16.9381 21.071 16.6 21.1999C15.8404 21.4987 15.1571 21.9633 14.6 22.5599C14.4443 22.6587 14.3338 22.815 14.2926 22.9947C14.2514 23.1745 14.2828 23.3632 14.38 23.5199C14.66 24.0199 18.38 23.5199 19.1 23.5199C19.4189 23.5325 19.7349 23.5863 20.04 23.6799C20.2217 23.786 20.4372 23.8181 20.642 23.7698C20.8467 23.7214 21.025 23.5961 21.14 23.4199C21.245 23.2413 21.2765 23.0289 21.228 22.8275C21.1795 22.626 21.0548 22.4513 20.88 22.3399C20.2817 21.7438 19.5366 21.316 18.72 21.0999C18.3738 21.0132 18.0153 20.9862 17.66 21.0199Z" fill="black"/>
<path fill-rule="evenodd" clip-rule="evenodd" d="M32.16 23.52C32.2554 23.3609 32.2837 23.1704 32.2387 22.9903C32.1937 22.8103 32.0791 22.6556 31.92 22.56C31.3685 21.9569 30.6836 21.4912 29.92 21.2C29.5819 21.0711 29.2217 21.01 28.86 21.02C28.4958 20.9993 28.1308 21.0399 27.78 21.14C26.9652 21.3604 26.2212 21.7876 25.62 22.38C25.4486 22.4945 25.3279 22.6706 25.2832 22.8719C25.2385 23.0731 25.2732 23.2838 25.38 23.46C25.4915 23.6402 25.67 23.7688 25.8762 23.8175C26.0825 23.8663 26.2996 23.8312 26.48 23.72C26.7851 23.6264 27.1011 23.5726 27.42 23.56C29.68 23.38 31.74 24.24 32.16 23.52Z" fill="black"/>
</g>
<defs>
<clipPath id="clip0_864_5120">
<rect width="48" height="48" fill="white"/>
</clipPath>
</defs>
</svg>
