<svg xmlns="http://www.w3.org/2000/svg"  viewBox="-0.5 0 25 25" fill="none">
<path d="M6.5 10.32C8.433 10.32 10 8.753 10 6.82001C10 4.88701 8.433 3.32001 6.5 3.32001C4.567 3.32001 3 4.88701 3 6.82001C3 8.753 4.567 10.32 6.5 10.32Z" stroke="#000000" stroke-width="1" stroke-linecap="round" stroke-linejoin="round"/>
<path d="M17.5 10.32C19.433 10.32 21 8.753 21 6.82001C21 4.88701 19.433 3.32001 17.5 3.32001C15.567 3.32001 14 4.88701 14 6.82001C14 8.753 15.567 10.32 17.5 10.32Z" stroke="#000000" stroke-width="1" stroke-linecap="round" stroke-linejoin="round"/>
<path d="M6.5 21.32C8.433 21.32 10 19.753 10 17.82C10 15.887 8.433 14.32 6.5 14.32C4.567 14.32 3 15.887 3 17.82C3 19.753 4.567 21.32 6.5 21.32Z" stroke="#000000" stroke-width="1" stroke-linecap="round" stroke-linejoin="round"/>
<path d="M17.5 21.32C19.433 21.32 21 19.753 21 17.82C21 15.887 19.433 14.32 17.5 14.32C15.567 14.32 14 15.887 14 17.82C14 19.753 15.567 21.32 17.5 21.32Z" stroke="#000000" stroke-width="1" stroke-linecap="round" stroke-linejoin="round"/>
</svg>
