<?xml version="1.0" encoding="utf-8"?><!-- Uploaded to: SVG Repo, www.svgrepo.com, Generator: SVG Repo Mixer Tools -->
<svg version="1.1" id="Uploaded to svgrepo.com" xmlns="http://www.w3.org/2000/svg" xmlns:xlink="http://www.w3.org/1999/xlink" 
	 width="800px" height="800px" viewBox="0 0 32 32" xml:space="preserve">
<style type="text/css">
	.stone_een{fill:#0B1719;}
</style>
<path class="stone_een" d="M24,2H8.942C9.593,2.636,10,3.52,10,4.5v23c0,0.98-0.407,1.864-1.058,2.5L24,30c1.657,0,3-1.343,3-3V5
	C27,3.343,25.657,2,24,2z M21.5,19h-6c-0.276,0-0.5-0.224-0.5-0.5s0.224-0.5,0.5-0.5h6c0.276,0,0.5,0.224,0.5,0.5S21.776,19,21.5,19
	z M21.5,17h-6c-0.276,0-0.5-0.224-0.5-0.5s0.224-0.5,0.5-0.5h6c0.276,0,0.5,0.224,0.5,0.5S21.776,17,21.5,17z M21.5,15h-6
	c-0.276,0-0.5-0.224-0.5-0.5s0.224-0.5,0.5-0.5h6c0.276,0,0.5,0.224,0.5,0.5S21.776,15,21.5,15z M4,7V5
	c0-1.571,1.212-2.846,2.75-2.975C8.01,2.153,9,3.207,9,4.5V8H5C4.448,8,4,7.552,4,7z M6.75,29.975C5.212,29.846,4,28.571,4,27v-2
	c0-0.552,0.448-1,1-1h4v3.5C9,28.793,8.01,29.847,6.75,29.975z"/>
</svg>