<svg width="48" height="48" viewBox="0 0 48 48" fill="none" xmlns="http://www.w3.org/2000/svg">
<g clip-path="url(#clip0_864_5215)">
<path d="M10.8 34.6001C10.1515 34.8368 9.48176 35.0109 8.80003 35.1201C7.82174 35.3398 6.81085 35.3738 5.82003 35.2201C5.22423 35.1139 4.65842 34.8802 4.16134 34.535C3.66425 34.1898 3.24764 33.7412 2.94003 33.2201C2.27518 31.9965 1.9701 30.6097 2.06003 29.2201C2.05379 28.6117 2.13461 28.0055 2.30003 27.4201C2.43104 26.8924 2.70027 26.4091 3.08003 26.0201C4.02656 24.955 5.26409 24.1902 6.64003 23.8201C8.02003 23.5201 8.18003 22.3201 6.06003 22.4001C4.49442 22.8153 3.0531 23.6046 1.86003 24.7001C1.34186 25.1575 0.931963 25.7246 0.660028 26.3601C0.277839 27.2406 0.0543976 28.1817 2.8003e-05 29.1401C-0.18051 30.8928 0.138435 32.6609 0.920028 34.2401C1.36452 35.0708 1.98805 35.7925 2.74553 36.3528C3.50302 36.9131 4.37554 37.2982 5.30003 37.4801C6.62817 37.718 7.99177 37.6703 9.30003 37.3401C10.0808 37.1628 10.844 36.9152 11.58 36.6001C12.74 36.1201 12 34.4201 10.8 34.6001Z" fill="black"/>
<path d="M30.5 33.8C30.1 33.04 28.64 33.28 28.8 34.16C28.8355 34.7595 28.8355 35.3606 28.8 35.96C28.68 36.86 28.12 36.68 25.8 37.44C25.56 36.52 25.48 36.42 25.08 34.86C25.0688 34.7627 25.0373 34.6689 24.9875 34.5845C24.9377 34.5002 24.8708 34.4272 24.791 34.3703C24.7113 34.3135 24.6205 34.274 24.5245 34.2544C24.4285 34.2348 24.3295 34.2356 24.2339 34.2567C24.1382 34.2778 24.048 34.3188 23.9692 34.3769C23.8904 34.435 23.8246 34.5091 23.7762 34.5942C23.7278 34.6793 23.6977 34.7737 23.6881 34.8712C23.6784 34.9686 23.6893 35.067 23.72 35.16C24.22 37.82 24.2 38.22 24.54 39.58C24.8917 41.0363 25.3806 42.456 26 43.82C25.26 44.04 24.26 44.3 23.44 44.46L22.66 44.68C22.04 43.96 21.08 42.26 19.7 40.14C19.18 39.36 18.54 38.52 17.9 37.72C16.64 36.1 16.38 35.84 15.9 35.34C15.34 34.5 13.9 35.34 14.46 36.12C15.3314 37.996 16.5378 39.6972 18.02 41.14C18.9265 42.5426 19.7222 44.0138 20.4 45.54C20.7195 46.1642 21.2515 46.6536 21.9 46.92C22.3826 47.0096 22.8775 47.0096 23.36 46.92C24.7264 46.6672 26.0657 46.2855 27.36 45.78C27.6973 45.6537 27.9992 45.4479 28.24 45.18C28.3845 45.015 28.4753 44.8098 28.5003 44.5919C28.5253 44.3739 28.4834 44.1535 28.38 43.96C27.4635 42.4392 26.6997 40.8314 26.1 39.16C26.1 39.16 26.1 38.98 26.1 38.88C27.3083 38.7154 28.4953 38.4204 29.64 38C29.9267 37.9042 30.1903 37.7498 30.4141 37.5467C30.6379 37.3436 30.817 37.0961 30.94 36.82C31.0724 36.2746 31.0724 35.7055 30.94 35.16C30.8298 34.6957 30.6827 34.2409 30.5 33.8Z" fill="black"/>
<path d="M47.1 14.22C46.4049 13.1885 45.3946 12.4096 44.22 12C42.9893 11.5248 41.6434 11.4342 40.36 11.74C39.6 12.52 39.94 13.58 41.08 13.24C41.892 13.274 42.6855 13.4929 43.4 13.88C44.1133 14.2037 44.7076 14.7421 45.1 15.42C45.5104 16.2179 45.723 17.1028 45.72 18C45.7745 18.947 45.5595 19.8901 45.1 20.72C44.7349 21.3081 44.1971 21.7692 43.56 22.04C42.5 22.38 42.82 23.82 44.24 23.52C44.9323 23.2842 45.5675 22.9062 46.1048 22.4102C46.6422 21.9142 47.0697 21.3112 47.36 20.64C47.7999 19.6455 48.0183 18.5673 48 17.48C47.9631 16.3373 47.6546 15.2198 47.1 14.22Z" fill="black"/>
<path d="M37.3601 7.52001C36.9198 5.98452 36.3922 4.4754 35.7801 3.00001C35.5579 2.43473 35.1775 1.94546 34.6845 1.59076C34.1914 1.23605 33.6066 1.03095 33.0001 1.00001C32.3746 0.93106 31.7437 1.06742 31.2025 1.38851C30.6613 1.7096 30.2393 2.198 30.0001 2.78001C29.8201 3.32001 29.6801 3.86001 29.5601 4.38001C29.2801 5.70001 29.1601 6.96001 28.8801 7.86001C27.862 9.73463 26.3819 11.318 24.5801 12.46C20.7082 15.3285 16.6528 17.9407 12.4401 20.28C11.8599 20.5969 11.3049 20.958 10.7801 21.36C10.7467 21.4321 10.7279 21.5102 10.725 21.5896C10.722 21.6691 10.7348 21.7483 10.7627 21.8228C10.7906 21.8972 10.8331 21.9653 10.8875 22.0232C10.942 22.0811 11.0075 22.1276 11.0801 22.16C11.1728 22.2187 11.2803 22.2498 11.3901 22.2498C11.4998 22.2498 11.6073 22.2187 11.7001 22.16L13.0401 21.44L13.8401 21.02C14.0503 22.7738 14.5222 24.4861 15.2401 26.1C15.6201 26.98 16.0801 27.8 16.5201 28.8C16.545 28.8867 16.5868 28.9676 16.643 29.0381C16.6992 29.1086 16.7688 29.1674 16.8477 29.2111C16.9266 29.2547 17.0134 29.2824 17.103 29.2925C17.1926 29.3026 17.2834 29.295 17.3701 29.27C17.4567 29.2451 17.5376 29.2033 17.6082 29.1471C17.6787 29.0908 17.7374 29.0213 17.7811 28.9424C17.8247 28.8634 17.8524 28.7767 17.8625 28.687C17.8726 28.5974 17.865 28.5067 17.8401 28.42C17.6906 25.5209 16.6733 22.7337 14.9201 20.42C18.6101 18.5041 22.177 16.36 25.6001 14C27.7458 12.6915 29.5111 10.8434 30.7201 8.64001C31.0201 7.68001 31.2001 6.38001 31.5401 5.02001C31.6601 4.56668 31.8001 4.10668 31.9601 3.64001C32.0801 3.34001 32.4801 3.28001 32.8401 3.32001C33.035 3.33142 33.2228 3.39749 33.382 3.51068C33.5412 3.62387 33.6653 3.77959 33.7401 3.96001C34.2939 5.36549 34.768 6.80111 35.1601 8.26001C42.2201 33.16 42.0001 29.04 42.7001 32C42.9201 32.92 42.9801 33.78 42.2401 34.34C42.1786 34.3733 42.1099 34.3907 42.0401 34.3907C41.9702 34.3907 41.9015 34.3733 41.8401 34.34C41.6314 34.2467 41.4363 34.1256 41.2601 33.98C40.5401 33.36 39.5601 32.26 38.5801 31.5C38.0866 31.0849 37.5155 30.7722 36.9001 30.58C35.3001 30.16 18.3401 32.58 14.1801 32.36C13.0401 31.06 13.6401 31.56 10.1801 23.32C10.0001 22.86 9.80005 22.02 9.04005 22.24C8.28005 22.46 8.78005 23.16 9.04005 23.78C10.7401 28.76 11.7201 31.34 12.3801 32.72C12.3801 32.72 12.9801 34.72 13.5601 34.72C13.7601 34.72 34.4401 31.86 36.4801 32.44C36.9872 32.6475 37.4441 32.9612 37.8201 33.36C38.6401 34.1 39.4401 35.02 40.0401 35.56C40.5627 36.0218 41.197 36.339 41.8801 36.48C42.4693 36.5511 43.0634 36.3936 43.5401 36.04C44.0671 35.6657 44.483 35.1558 44.7436 34.5642C45.0042 33.9726 45.0997 33.3215 45.0201 32.68C44.6003 30.4708 43.9292 28.3168 43.0201 26.26C35.8801 3.10001 39.1201 13.54 37.3601 7.52001Z" fill="black"/>
</g>
<defs>
<clipPath id="clip0_864_5215">
<rect width="48" height="48" fill="white"/>
</clipPath>
</defs>
</svg>
