<?xml version="1.0" encoding="iso-8859-1"?>
<!-- Uploaded to: SVG Repo, www.svgrepo.com, Generator: SVG Repo Mixer Tools -->
<svg fill="#000000" height="800px" width="800px" version="1.1" id="Layer_1" xmlns="http://www.w3.org/2000/svg" xmlns:xlink="http://www.w3.org/1999/xlink" 
	 viewBox="0 0 512 512" xml:space="preserve">
<g>
	<g>
		<path d="M256.001,215.765c-22.186,0-40.235,18.049-40.235,40.235s18.049,40.235,40.235,40.235
			c22.186,0,40.235-18.049,40.235-40.235S278.187,215.765,256.001,215.765z M256.001,278.849c-12.599,0-22.849-10.25-22.849-22.849
			s10.25-22.849,22.849-22.849S278.85,243.401,278.85,256S268.6,278.849,256.001,278.849z"/>
	</g>
</g>
<g>
	<g>
		<path d="M362.318,479.584c-1.909-4.404-7.027-6.431-11.433-4.519c-29.929,12.971-61.853,19.549-94.885,19.549
			c-63.735,0-123.658-24.82-168.725-69.888C42.208,379.659,17.387,319.735,17.387,256c0-59.338,21.868-116.157,61.576-159.99
			c3.223-3.558,2.951-9.056-0.606-12.279c-3.558-3.223-9.056-2.952-12.279,0.606C23.467,131.375,0.001,192.339,0.001,256
			c0,68.38,26.629,132.667,74.981,181.019C123.334,485.371,187.621,512,256.001,512c35.425,0,69.675-7.06,101.798-20.983
			C362.205,489.108,364.227,483.99,362.318,479.584z"/>
	</g>
</g>
<g>
	<g>
		<path d="M437.02,74.981C388.668,26.629,324.38,0,256.001,0C195.523,0,136.904,21.421,90.942,60.315
			c-3.665,3.102-4.122,8.586-1.02,12.251c3.101,3.666,8.586,4.123,12.251,1.02c42.827-36.241,97.456-56.2,153.827-56.2
			c63.737,0,123.658,24.821,168.725,69.888c45.068,45.068,69.889,104.989,69.889,168.725s-24.82,123.657-69.889,168.725
			c-12.956,12.956-27.35,24.407-42.783,34.034c-4.073,2.541-5.316,7.904-2.775,11.977c1.648,2.643,4.483,4.093,7.385,4.093
			c1.571,0,3.162-0.427,4.592-1.319c16.552-10.326,31.986-22.603,45.874-36.491c48.352-48.352,74.981-112.639,74.981-181.019
			S485.372,123.333,437.02,74.981z"/>
	</g>
</g>
<g>
	<g>
		<path d="M460.023,213.289c-0.067-0.525-0.178-1.041-0.338-1.543c-7.51-34.479-23.721-66.737-47.463-93.611
			c-3.179-3.598-8.672-3.937-12.27-0.759c-3.598,3.179-3.937,8.672-0.759,12.27c18.228,20.632,31.616,44.724,39.53,70.573
			c-47.57-16.571-112.901-25.936-182.722-25.936c-69.84,0-135.189,9.37-182.761,25.951
			c23.919-78.237,96.796-135.305,182.761-135.305c43.719,0,84.899,14.443,119.086,41.771c3.75,2.997,9.22,2.388,12.218-1.363
			c2.997-3.75,2.388-9.22-1.363-12.218c-36.768-29.39-82.916-45.576-129.941-45.576c-100.035,0-183.826,70.834-203.882,164.976
			c-0.019,0.085-0.039,0.169-0.056,0.254c-2.953,13.951-4.519,28.409-4.519,43.227c0,3.299,0.086,6.579,0.239,9.841
			c0.002,0.107,0.006,0.212,0.012,0.318c2.676,55.499,27.158,105.37,65.043,141.218c0.048,0.046,0.089,0.096,0.138,0.141
			c0.044,0.041,0.092,0.074,0.136,0.114c13.669,12.889,29.076,23.949,45.825,32.8c0.449,0.297,0.931,0.549,1.437,0.759
			c28.658,14.859,61.178,23.266,95.627,23.266c34.681,0,67.404-8.524,96.202-23.57c0.049-0.024,0.095-0.05,0.144-0.075
			c17.028-8.913,32.679-20.108,46.544-33.18c0.045-0.039,0.093-0.073,0.137-0.115c0.049-0.045,0.09-0.095,0.138-0.14
			c37.882-35.847,62.363-85.713,65.042-141.207c0.007-0.112,0.01-0.225,0.013-0.338c0.152-3.259,0.239-6.535,0.239-9.83
			C464.459,241.546,462.951,227.241,460.023,213.289z M112.954,206.801c40.936-9.768,90.596-15.129,143.047-15.129
			s102.11,5.362,143.047,15.129c2.858,9.087,8.934,33.052,5.651,64.415c-14.247,11.526-25.978,28.839-32.308,49.81
			c-3.242,10.742-4.771,21.647-4.7,32.156c-11.759,2.115-33.173,9.334-58.212,33.31c-17.153,3.933-35.126,5.947-53.476,5.947
			c-18.351,0-36.323-2.016-53.476-5.948c-25.04-23.977-46.454-31.195-58.212-33.311c0.071-10.508-1.458-21.413-4.7-32.154
			c-6.33-20.971-18.06-38.284-32.307-49.809C104.02,239.852,110.096,215.888,112.954,206.801z M68.223,220.643
			c7.827-3.124,16.291-6.018,25.295-8.676c-2.624,11.244-5.212,27.945-4.423,48.308c-7.835-3.23-16.003-4.821-24.161-4.516
			C64.948,243.765,66.083,232.029,68.223,220.643z M117.954,387.97c-29.123-30.451-48.29-70.492-52.248-114.843
			c23.129-0.714,47.738,21.375,57.26,52.922C129.83,348.791,127.762,372.018,117.954,387.97z M159.024,420.568
			c-10.056-5.948-19.527-12.784-28.294-20.411c5.831-8.458,9.852-18.59,11.933-29.621c2.439,0.504,5.452,1.309,8.966,2.608
			c7.61,2.815,18.857,8.476,32.047,19.722C170.053,402.067,162.8,412.74,159.024,420.568z M256.001,447.071
			c-29.2,0-56.885-6.593-81.661-18.354c2.956-6.429,9.802-16.832,25.059-25.083c18.193,4.109,37.218,6.191,56.601,6.191
			c19.384,0,38.408-2.082,56.602-6.191c15.255,8.248,22.104,18.652,25.059,25.081C312.886,440.477,285.2,447.071,256.001,447.071z
			 M352.977,420.568c-3.776-7.828-11.03-18.5-24.652-27.703c13.19-11.245,24.437-16.906,32.047-19.722
			c3.513-1.299,6.527-2.104,8.965-2.608c2.079,11.032,6.101,21.165,11.933,29.623C372.504,407.785,363.033,414.62,352.977,420.568z
			 M394.047,387.969c-9.808-15.952-11.876-39.179-5.012-61.92c9.521-31.546,34.127-53.64,57.26-52.922
			C442.335,317.478,423.17,357.518,394.047,387.969z M422.907,260.277c0.788-20.364-1.799-37.065-4.423-48.308
			c8.993,2.654,17.449,5.544,25.27,8.665c2.173,11.51,3.299,23.263,3.314,35.127C438.911,255.456,430.743,257.047,422.907,260.277z"
			/>
	</g>
</g>
</svg>