<?xml version="1.0" encoding="iso-8859-1"?>
<!-- Uploaded to: SVG Repo, www.svgrepo.com, Generator: SVG Repo Mixer Tools -->
<svg height="800px" width="800px" version="1.1" id="Layer_1" xmlns="http://www.w3.org/2000/svg" xmlns:xlink="http://www.w3.org/1999/xlink" 
	 viewBox="0 0 512 512" xml:space="preserve">
<g>
	<path style="fill:#353640;" d="M127.459,232.146l-26.45-34.59l-0.136,0.032c-17.658,4.417-33.515,9.569-47.137,15.319
		L23.67,237.057l25.784,28.947c14.827-3.667,30.489,0.586,44.127,10.586l-0.012-0.03c-0.001-0.007-0.001-0.016-0.002-0.023
		l0.016,0.052l0,0l0,0l0,0l0,0L127.459,232.146z"/>
	<path style="fill:#353640;" d="M183.126,357.782l-52.101,6.933c-1.549,16.589-7.499,31.267-16.971,41.519l6.142,41.546
		l40.256-8.436c0,0,4.201-24.505,35.776-40.034L183.126,357.782z"/>
	<path style="fill:#353640;" d="M384.54,232.146l26.45-34.59l0.136,0.032c17.658,4.417,33.515,9.569,47.136,15.319l30.066,24.149
		l-25.784,28.947c-14.827-3.667-30.489,0.586-44.127,10.586l0.012-0.03c0.001-0.007,0.001-0.016,0.002-0.023l-0.016,0.052l0,0l0,0
		l0,0l0,0L384.54,232.146z"/>
	<path style="fill:#353640;" d="M328.874,357.782l52.101,6.933c1.549,16.589,7.499,31.267,16.971,41.519l-6.142,41.546
		l-40.256-8.436c0,0-4.201-24.505-35.776-40.034L328.874,357.782z"/>
</g>
<g>
	<path style="fill:#515262;" d="M256,512c-68.38,0-132.667-26.629-181.02-74.98S0,324.38,0,256S26.629,123.333,74.98,74.98
		S187.62,0,256,0s132.667,26.629,181.02,74.98S512,187.62,512,256s-26.629,132.667-74.98,181.02S324.38,512,256,512z M256,49.214
		C141.977,49.214,49.214,141.979,49.214,256S141.979,462.786,256,462.786S462.786,370.021,462.786,256
		C462.786,141.977,370.021,49.214,256,49.214z"/>
	<path style="fill:#515262;" d="M101.008,197.557c-0.028,0.068-13.288,32.425-7.44,79.005l0.012,0.03
		c14.605,10.708,26.89,28.012,33.323,49.321c4.016,13.305,5.262,26.572,4.121,38.802c0.001,0,28.112-1.891,65.203,34.594l0,0l0,0
		c18.664,4.481,38.79,6.924,59.772,6.924s41.107-2.443,59.772-6.924c37.091-36.485,65.203-34.594,65.203-34.594l0,0
		c-1.142-12.231,0.106-25.497,4.121-38.802c6.432-21.309,18.717-38.611,33.323-49.321l0.012-0.03
		c5.848-46.579-7.411-78.936-7.44-79.005c-43.024-10.754-96.727-17.145-154.992-17.145S144.033,186.803,101.008,197.557z"/>
</g>
<circle style="fill:#353640;" cx="256.006" cy="256.006" r="32.647"/>
</svg>