<svg width="48" height="48" viewBox="0 0 48 48" fill="none" xmlns="http://www.w3.org/2000/svg">
<g clip-path="url(#clip0_864_4511)">
<path d="M17 47H3C2.46957 47 1.96086 46.7893 1.58579 46.4142C1.21071 46.0391 1 45.5304 1 45V3C1 2.46957 1.21071 1.96086 1.58579 1.58579C1.96086 1.21071 2.46957 1 3 1H29.586C30.1164 1.00011 30.625 1.2109 31 1.586L38.414 9C38.7891 9.37499 38.9999 9.88361 39 10.414V17" stroke="black" stroke-width="2" stroke-linecap="round" stroke-linejoin="round"/>
<path d="M7 17.542L9.166 19.706C9.26856 19.8086 9.39223 19.8877 9.52843 19.9378C9.66462 19.9878 9.81008 20.0077 9.95471 19.9959C10.0993 19.9841 10.2397 19.9409 10.3659 19.8695C10.4922 19.798 10.6014 19.6999 10.686 19.582L15 13.542" stroke="black" stroke-width="2" stroke-linecap="round" stroke-linejoin="round"/>
<path d="M21 17H29" stroke="black" stroke-width="2" stroke-linecap="round" stroke-linejoin="round"/>
<path d="M7 27.542L9.166 29.706C9.26856 29.8086 9.39223 29.8877 9.52843 29.9378C9.66462 29.9878 9.81008 30.0077 9.95471 29.9959C10.0993 29.9841 10.2397 29.9409 10.3659 29.8695C10.4922 29.798 10.6014 29.6999 10.686 29.582L15 23.542" stroke="black" stroke-width="2" stroke-linecap="round" stroke-linejoin="round"/>
<path d="M21 27H29" stroke="black" stroke-width="2" stroke-linecap="round" stroke-linejoin="round"/>
<path d="M45.76 30.2381L30.5 45.5001L23 47.0001L24.5 39.5001L39.76 24.2381C40.5536 23.4447 41.6298 22.999 42.752 22.999C43.8742 22.999 44.9504 23.4447 45.744 24.2381L45.76 24.2561C46.1532 24.6486 46.4652 25.1148 46.6781 25.628C46.891 26.1413 47.0005 26.6914 47.0005 27.2471C47.0005 27.8027 46.891 28.3529 46.6781 28.8661C46.4652 29.3793 46.1532 29.8456 45.76 30.2381Z" stroke="black" stroke-width="2" stroke-linecap="round" stroke-linejoin="round"/>
</g>
<defs>
<clipPath id="clip0_864_4511">
<rect width="48" height="48" fill="white"/>
</clipPath>
</defs>
</svg>
